# Made in Blockbench 4.8.3
mtllib to_go_0.mtl

o bottom
v 0.1562500000000001 0.0006249999999999867 0.06249999999999989
v 0.1562500000000001 0.0006249999999999867 -0.06250000000000011
v 0.1562500000000001 0.0006249999999999867 0.06249999999999989
v 0.1562500000000001 0.0006249999999999867 -0.06250000000000011
v -0.1562499999999999 0.0006249999999999867 -0.06250000000000011
v -0.1562499999999999 0.0006249999999999867 0.06249999999999989
v -0.1562499999999999 0.0006249999999999867 -0.06250000000000011
v -0.1562499999999999 0.0006249999999999867 0.06249999999999989
vt 0.6875 0.8125
vt 1 0.8125
vt 1 0.6875
vt 0.6875 0.6875
vt 0.6875 0.8125
vt 1 0.8125
vt 1 0.6875
vt 0.6875 0.6875
vn 0 1 0
vn 0 -1 0
usemtl m_441eadab-6e95-ff90-ee2d-a7ca15049bab
f 6/4/1 1/3/1 2/2/1 5/1/1
f 7/8/2 4/7/2 3/6/2 8/5/2
o front
v 0.1562499999999999 0.18368050133498737 -0.10308242761339437
v 0.1562499999999999 0.18368050133498737 -0.10308242761339437
v 0.1562499999999999 0.0006249999999999867 -0.06250000000000011
v 0.1562499999999999 0.0006249999999999867 -0.06250000000000011
v -0.1562500000000001 0.18368050133498737 -0.10308242761339437
v -0.1562500000000001 0.18368050133498737 -0.10308242761339437
v -0.1562500000000001 0.0006249999999999867 -0.06250000000000011
v -0.1562500000000001 0.0006249999999999867 -0.06250000000000011
vt 0.3125 0.875
vt 0.625 0.875
vt 0.625 0.6875
vt 0.3125 0.6875
vt 0.625 0.875
vt 0.3125 0.875
vt 0.3125 0.6875
vt 0.625 0.6875
vn 0 -0.21643961393810288 -0.9762960071199334
vn 0 0.21643961393810288 0.9762960071199334
usemtl m_441eadab-6e95-ff90-ee2d-a7ca15049bab
f 12/12/3 15/11/3 13/10/3 10/9/3
f 16/16/4 11/15/4 9/14/4 14/13/4
o back
v 0.1562499999999999 0.3057175022249792 0.13013737935565706
v 0.1562499999999999 0.3057175022249792 0.13013737935565706
v 0.1562499999999999 0.0006249999999999867 0.06249999999999989
v 0.1562499999999999 0.0006249999999999867 0.06249999999999989
v -0.1562500000000001 0.3057175022249792 0.13013737935565706
v -0.1562500000000001 0.3057175022249792 0.13013737935565706
v -0.1562500000000001 0.0006249999999999867 0.06249999999999989
v -0.1562500000000001 0.0006249999999999867 0.06249999999999989
vt 0 1
vt 0.3125 1
vt 0.3125 0.6875
vt 0 0.6875
vt 0.3125 1
vt 0 1
vt 0 0.6875
vt 0.3125 0.6875
vn 0 0.21643961393810288 -0.9762960071199334
vn 0 -0.21643961393810288 0.9762960071199334
usemtl m_441eadab-6e95-ff90-ee2d-a7ca15049bab
f 20/20/5 23/19/5 21/18/5 18/17/5
f 24/24/6 19/23/6 17/22/6 22/21/6
o front_l
v -0.15552500000000002 0.19720797720611893 -0.04206392716839846
v -0.15552500000000002 0.18368050133498748 -0.10308242761339426
v -0.15552500000000002 0.014152475871131442 -0.001481499555004151
v -0.15552500000000002 0.0006249999999999867 -0.0625
v -0.15625 0.18368050133498748 -0.10308242761339426
v -0.15625 0.19720797720611893 -0.04206392716839846
v -0.15625 0.0006249999999999867 -0.0625
v -0.15625 0.014152475871131442 -0.001481499555004151
vt 0.5625 0.875
vt 0.625 0.875
vt 0.625 0.6875
vt 0.5625 0.6875
vt 0.5625 0.875
vt 0.625 0.875
vt 0.625 0.6875
vt 0.5625 0.6875
vn 1 0 0
vn -1 0 0
usemtl m_441eadab-6e95-ff90-ee2d-a7ca15049bab
f 27/28/7 28/27/7 26/26/7 25/25/7
f 31/32/8 32/31/8 30/30/8 29/29/8
o back_l
v -0.15552500000000002 0.3057175022249792 0.13013737935565717
v -0.15552500000000002 0.31924497809611063 0.06911887891066137
v -0.15552500000000002 0.0006249999999999867 0.0625
v -0.15552500000000002 0.014152475871131442 0.0014814995550042065
v -0.15625 0.31924497809611063 0.06911887891066137
v -0.15625 0.3057175022249792 0.13013737935565717
v -0.15625 0.014152475871131442 0.0014814995550042065
v -0.15625 0.0006249999999999867 0.0625
vt 0.25 1
vt 0.3125 1
vt 0.3125 0.6875
vt 0.25 0.6875
vt 0.25 1
vt 0.3125 1
vt 0.3125 0.6875
vt 0.25 0.6875
vt 0.25 1
vt 0.3125 1
vt 0.3125 0.6875
vt 0.25 0.6875
vt 0.25 1
vt 0.3125 1
vt 0.3125 0.6875
vt 0.25 0.6875
vt 0.25 1
vt 0.3125 1
vt 0.3125 0.6875
vt 0.25 0.6875
vt 0.25 1
vt 0.3125 1
vt 0.3125 0.6875
vt 0.25 0.6875
vn 0 0.21643961393810288 -0.9762960071199334
vn 1 0 0
vn 0 -0.21643961393810288 0.9762960071199334
vn -1 0 0
vn 0 0.9762960071199334 0.21643961393810288
vn 0 -0.9762960071199334 -0.21643961393810288
usemtl m_441eadab-6e95-ff90-ee2d-a7ca15049bab
f 36/36/9 39/35/9 37/34/9 34/33/9
f 35/40/10 36/39/10 34/38/10 33/37/10
f 40/44/11 35/43/11 33/42/11 38/41/11
f 39/48/12 40/47/12 38/46/12 37/45/12
f 38/52/13 33/51/13 34/50/13 37/49/13
f 39/56/14 36/55/14 35/54/14 40/53/14
o top_l
v -0.15553125 0.22426292894838173 0.07997307372159324
v -0.15553125 0.18368050133498748 -0.10308242761339426
v -0.15553125 0.16324442850338594 0.09350054959272458
v -0.15553125 0.12266200088999168 -0.08955495174226286
v -0.15621874999999996 0.18368050133498748 -0.10308242761339426
v -0.15621874999999996 0.22426292894838173 0.07997307372159324
v -0.15621874999999996 0.12266200088999168 -0.08955495174226286
v -0.15621874999999996 0.16324442850338594 0.09350054959272458
vt 0.5625 0.875
vt 0.625 0.875
vt 0.625 0.6875
vt 0.5625 0.6875
vt 0.5625 0.875
vt 0.5625 0.6875
vt 0.625 0.6875
vt 0.625 0.875
vt 0.5625 0.875
vt 0.625 0.875
vt 0.625 0.6875
vt 0.5625 0.6875
vt 0.5625 0.6875
vt 0.5625 0.875
vt 0.625 0.875
vt 0.625 0.6875
vt 0.5625 0.875
vt 0.625 0.875
vt 0.625 0.6875
vt 0.5625 0.6875
vt 0.5625 0.875
vt 0.625 0.875
vt 0.625 0.6875
vt 0.5625 0.6875
vn 0 -0.21643961393810288 -0.9762960071199334
vn 1 0 0
vn 0 0.21643961393810288 0.9762960071199334
vn -1 0 0
vn 0 0.9762960071199334 -0.21643961393810288
vn 0 -0.9762960071199334 0.21643961393810288
usemtl m_441eadab-6e95-ff90-ee2d-a7ca15049bab
f 44/60/15 47/59/15 45/58/15 42/57/15
f 43/64/16 44/63/16 42/62/16 41/61/16
f 48/68/17 43/67/17 41/66/17 46/65/17
f 47/72/18 48/71/18 46/70/18 45/69/18
f 46/76/19 41/75/19 42/74/19 45/73/19
f 47/80/20 44/79/20 43/78/20 48/77/20
o bottom_l
v -0.15557500000000002 0.188125 0.0625
v -0.15557500000000002 0.188125 -0.0625
v -0.15557500000000002 0.0006249999999999867 0.0625
v -0.15557500000000002 0.0006249999999999867 -0.0625
v -0.1562 0.188125 -0.0625
v -0.1562 0.188125 0.0625
v -0.1562 0.0006249999999999867 -0.0625
v -0.1562 0.0006249999999999867 0.0625
vt 0.875 0.8125
vt 0.6875 0.8125
vt 0.6875 0.6875
vt 0.875 0.6875
vt 0.875 0.6875
vt 0.875 0.8125
vt 0.6875 0.8125
vt 0.6875 0.6875
vt 0.875 0.8125
vt 0.6875 0.8125
vt 0.6875 0.6875
vt 0.875 0.6875
vt 0.875 0.6875
vt 0.875 0.8125
vt 0.6875 0.8125
vt 0.6875 0.6875
vt 0.875 0.8125
vt 0.6875 0.8125
vt 0.6875 0.6875
vt 0.875 0.6875
vt 0.875 0.8125
vt 0.6875 0.8125
vt 0.6875 0.6875
vt 0.875 0.6875
vn 0 0 -1
vn 1 0 0
vn 0 0 1
vn -1 0 0
vn 0 1 0
vn 0 -1 0
usemtl m_441eadab-6e95-ff90-ee2d-a7ca15049bab
f 52/84/21 55/83/21 53/82/21 50/81/21
f 51/88/22 52/87/22 50/86/22 49/85/22
f 56/92/23 51/91/23 49/90/23 54/89/23
f 55/96/24 56/95/24 54/94/24 53/93/24
f 54/100/25 49/99/25 50/98/25 53/97/25
f 55/104/26 52/103/26 51/102/26 56/101/26
o back_r
v 0.15625 0.3057175022249792 0.13013737935565717
v 0.15625 0.31924497809611063 0.06911887891066137
v 0.15625 0.0006249999999999867 0.0625
v 0.15625 0.014152475871131442 0.0014814995550042065
v 0.15552500000000002 0.31924497809611063 0.06911887891066137
v 0.15552500000000002 0.3057175022249792 0.13013737935565717
v 0.15552500000000002 0.014152475871131442 0.0014814995550042065
v 0.15552500000000002 0.0006249999999999867 0.0625
vt 0 1
vt 0.0625 1
vt 0.0625 0.6875
vt 0 0.6875
vt 0.0625 1
vt 0 1
vt 0 0.6875
vt 0.0625 0.6875
vt 0 1
vt 0.0625 1
vt 0.0625 0.6875
vt 0 0.6875
vt 0.0625 1
vt 0 1
vt 0 0.6875
vt 0.0625 0.6875
vt 0 1
vt 0.0625 1
vt 0.0625 0.6875
vt 0 0.6875
vt 0 1
vt 0.0625 1
vt 0.0625 0.6875
vt 0 0.6875
vn 0 0.21643961393810288 -0.9762960071199334
vn 1 0 0
vn 0 -0.21643961393810288 0.9762960071199334
vn -1 0 0
vn 0 0.9762960071199334 0.21643961393810288
vn 0 -0.9762960071199334 -0.21643961393810288
usemtl m_441eadab-6e95-ff90-ee2d-a7ca15049bab
f 60/108/27 63/107/27 61/106/27 58/105/27
f 59/112/28 60/111/28 58/110/28 57/109/28
f 64/116/29 59/115/29 57/114/29 62/113/29
f 63/120/30 64/119/30 62/118/30 61/117/30
f 62/124/31 57/123/31 58/122/31 61/121/31
f 63/128/32 60/127/32 59/126/32 64/125/32
o bottom_r
v 0.1562 0.188125 0.0625
v 0.1562 0.188125 -0.0625
v 0.1562 0.0006249999999999867 0.0625
v 0.1562 0.0006249999999999867 -0.0625
v 0.15557500000000002 0.188125 -0.0625
v 0.15557500000000002 0.188125 0.0625
v 0.15557500000000002 0.0006249999999999867 -0.0625
v 0.15557500000000002 0.0006249999999999867 0.0625
vt 1 0.8125
vt 0.8125 0.8125
vt 0.8125 0.6875
vt 1 0.6875
vt 0.8125 0.8125
vt 0.8125 0.6875
vt 1 0.6875
vt 1 0.8125
vt 1 0.8125
vt 0.8125 0.8125
vt 0.8125 0.6875
vt 1 0.6875
vt 0.8125 0.8125
vt 0.8125 0.6875
vt 1 0.6875
vt 1 0.8125
vt 1 0.8125
vt 0.8125 0.8125
vt 0.8125 0.6875
vt 1 0.6875
vt 1 0.8125
vt 0.8125 0.8125
vt 0.8125 0.6875
vt 1 0.6875
vn 0 0 -1
vn 1 0 0
vn 0 0 1
vn -1 0 0
vn 0 1 0
vn 0 -1 0
usemtl m_441eadab-6e95-ff90-ee2d-a7ca15049bab
f 68/132/33 71/131/33 69/130/33 66/129/33
f 67/136/34 68/135/34 66/134/34 65/133/34
f 72/140/35 67/139/35 65/138/35 70/137/35
f 71/144/36 72/143/36 70/142/36 69/141/36
f 70/148/37 65/147/37 66/146/37 69/145/37
f 71/152/38 68/151/38 67/150/38 72/149/38
o top_r
v 0.15621874999999996 0.22426292894838173 0.07997307372159324
v 0.15621874999999996 0.18368050133498748 -0.10308242761339426
v 0.15621874999999996 0.16324442850338594 0.09350054959272458
v 0.15621874999999996 0.12266200088999168 -0.08955495174226286
v 0.15553125 0.18368050133498748 -0.10308242761339426
v 0.15553125 0.22426292894838173 0.07997307372159324
v 0.15553125 0.12266200088999168 -0.08955495174226286
v 0.15553125 0.16324442850338594 0.09350054959272458
vt 0.375 0.875
vt 0.3125 0.875
vt 0.3125 0.6875
vt 0.375 0.6875
vt 0.3125 0.875
vt 0.3125 0.6875
vt 0.375 0.6875
vt 0.375 0.875
vt 0.375 0.875
vt 0.3125 0.875
vt 0.3125 0.6875
vt 0.375 0.6875
vt 0.3125 0.6875
vt 0.3125 0.875
vt 0.375 0.875
vt 0.375 0.6875
vt 0.375 0.875
vt 0.3125 0.875
vt 0.3125 0.6875
vt 0.375 0.6875
vt 0.375 0.875
vt 0.3125 0.875
vt 0.3125 0.6875
vt 0.375 0.6875
vn 0 -0.21643961393810288 -0.9762960071199334
vn 1 0 0
vn 0 0.21643961393810288 0.9762960071199334
vn -1 0 0
vn 0 0.9762960071199334 -0.21643961393810288
vn 0 -0.9762960071199334 0.21643961393810288
usemtl m_441eadab-6e95-ff90-ee2d-a7ca15049bab
f 76/156/39 79/155/39 77/154/39 74/153/39
f 75/160/40 76/159/40 74/158/40 73/157/40
f 80/164/41 75/163/41 73/162/41 78/161/41
f 79/168/42 80/167/42 78/166/42 77/165/42
f 78/172/43 73/171/43 74/170/43 77/169/43
f 79/176/44 76/175/44 75/174/44 80/173/44
o front_r
v 0.15628750000000002 0.19720797720611893 -0.04206392716839846
v 0.15628750000000002 0.18368050133498748 -0.10308242761339426
v 0.15628750000000002 0.014152475871131442 -0.001481499555004151
v 0.15628750000000002 0.0006249999999999867 -0.0625
v 0.15556250000000005 0.18368050133498748 -0.10308242761339426
v 0.15556250000000005 0.19720797720611893 -0.04206392716839846
v 0.15556250000000005 0.0006249999999999867 -0.0625
v 0.15556250000000005 0.014152475871131442 -0.001481499555004151
vt 0.625 0.875
vt 0.5625 0.875
vt 0.5625 0.6875
vt 0.625 0.6875
vt 0.625 0.875
vt 0.5625 0.875
vt 0.5625 0.6875
vt 0.625 0.6875
vn 1 0 0
vn -1 0 0
usemtl m_441eadab-6e95-ff90-ee2d-a7ca15049bab
f 83/180/45 84/179/45 82/178/45 81/177/45
f 87/184/46 88/183/46 86/182/46 85/181/46